#N canvas 11 103 594 486 12;
#N canvas -251 351 1924 725 synth1 0;
#X obj 522 67 hsl 128 15 0 1 0 0 oscgain2 oscgain2 Osc_Gain2 -2 -8
0 10 -262144 -1 -1 0 1;
#X obj 454 1556 hsl 128 15 0 1 0 0 mastergain mastergain Master_Gain
-2 -8 0 10 -262144 -1 -1 0 1;
#X obj 535 157 hsl 128 15 0 1 0 0 oscgain1 oscgain1 Osc_Gain1 -2 -8
0 10 -262144 -1 -1 0 1;
#N canvas 183 60 329 243 masterGain 0;
#X obj 84 126 *~;
#X floatatom 104 102 5 0 0 0 - - -;
#X obj 106 73 receive mastergain;
#X obj 56 28 inlet~;
#X obj 76 191 outlet~;
#X connect 0 0 4 0;
#X connect 1 0 0 1;
#X connect 2 0 1 0;
#X connect 3 0 0 0;
#X restore 323 1553 pd masterGain;
#X obj 525 262 hsl 128 15 0 1 0 0 oscgain3 oscgain3 Osc_Gain3 -2 -8
0 10 -262144 -1 -1 0 1;
#X obj 409 369 hsl 128 15 0 1 0 0 distortionWetDry distortionWetDry
Distortion:_Dry_---_Wet -2 -8 0 10 -262144 -1 -1 0 1;
#N canvas 75 124 712 563 distortion 0;
#X obj 147 32 inlet~;
#X obj 206 414 outlet~;
#X obj 233 166 expr~ tanh($v1);
#X floatatom 234 87 5 0 0 0 - - -;
#X obj 233 142 *~;
#X text 275 72 Distortion Amount;
#X obj 245 49 receive distortionAmnt;
#X obj 80 244 expr 1 - $f1;
#X obj 29 300 *~;
#X floatatom 69 273 5 0 0 0 - - -;
#X text 106 276 "dry" signal;
#X obj 299 284 *~;
#X floatatom 326 257 5 0 0 0 - - -;
#X text 334 285 wet;
#X floatatom 449 174 5 0 0 0 - - -;
#X obj 448 147 receive distortionWetDry;
#X obj 392 122 loadbang;
#X msg 392 152 0;
#X connect 0 0 4 0;
#X connect 0 0 8 0;
#X connect 2 0 11 0;
#X connect 3 0 4 1;
#X connect 4 0 2 0;
#X connect 6 0 3 0;
#X connect 7 0 9 0;
#X connect 8 0 1 0;
#X connect 9 0 8 1;
#X connect 11 0 1 0;
#X connect 12 0 11 1;
#X connect 14 0 7 0;
#X connect 14 0 12 0;
#X connect 15 0 14 0;
#X connect 16 0 17 0;
#X connect 17 0 14 0;
#X restore 293 345 pd distortion;
#X obj 410 331 hsl 128 15 0.5 6 0 0 distortionAmnt distortionAmnt Distortion_Amount
-2 -8 0 10 -262144 -1 -1 0 1;
#N canvas 78 386 1471 1195 filterbank 0;
#X obj 195 311 *~;
#X floatatom 210 283 5 0 0 0 - - -;
#X floatatom 384 152 5 0 0 0 - - -;
#X floatatom 245 142 5 0 0 0 - - -;
#X floatatom 586 148 5 0 0 0 - - -;
#X obj 360 321 *~;
#X floatatom 377 297 5 0 0 0 - - -;
#X obj 540 310 *~;
#X floatatom 557 286 5 0 0 0 - - -;
#X obj 360 71 inlet~;
#X obj 86 522 outlet~;
#X obj 247 113 receive lopFreq;
#X obj 211 254 receive lopGain;
#X obj 385 115 receive bpFreq;
#X obj 376 268 receive bpGain;
#X obj 586 122 receive hpFreq;
#X obj 558 258 receive hpGain;
#X obj 195 172 lop~ 50;
#X obj 542 175 hip~ 1000;
#X obj 34 210 *~;
#X floatatom 54 165 5 0 0 0 - - -;
#X text 91 167 "dry" signal;
#X obj 56 136 expr 1 - $f1;
#X obj 203 449 *~;
#X obj 73 88 r bypassFilterBank;
#X floatatom 232 402 5 0 0 0 - - -;
#X obj 43 55 loadbang;
#X msg 44 81 0;
#X obj 357 186 bp~ 1000 10;
#X connect 0 0 23 0;
#X connect 1 0 0 1;
#X connect 2 0 28 1;
#X connect 3 0 17 1;
#X connect 4 0 18 1;
#X connect 5 0 23 0;
#X connect 6 0 5 1;
#X connect 7 0 23 0;
#X connect 8 0 7 1;
#X connect 9 0 17 0;
#X connect 9 0 18 0;
#X connect 9 0 19 0;
#X connect 9 0 28 0;
#X connect 11 0 3 0;
#X connect 12 0 1 0;
#X connect 13 0 2 0;
#X connect 14 0 6 0;
#X connect 15 0 4 0;
#X connect 16 0 8 0;
#X connect 17 0 0 0;
#X connect 18 0 7 0;
#X connect 19 0 10 0;
#X connect 20 0 19 1;
#X connect 22 0 20 0;
#X connect 23 0 10 0;
#X connect 24 0 22 0;
#X connect 24 0 25 0;
#X connect 25 0 23 1;
#X connect 26 0 27 0;
#X connect 27 0 22 0;
#X connect 28 0 5 0;
#X restore 367 1000 pd filterbank;
#N canvas 940 295 740 505 reverb 0;
#X obj 162 49 inlet~;
#X obj 144 364 outlet~;
#X floatatom 444 156 0 0 120 0 - - -;
#X text 485 156 level \, dB;
#X floatatom 472 173 0 0 100 0 - - -;
#X text 513 173 liveness \, 0-100;
#X floatatom 507 197 4 0 5000 0 - - -;
#X floatatom 542 220 0 0 100 0 - - -;
#X text 555 195 crossover frequency \, Hz.;
#X text 578 222 HF damping \, percent;
#X obj 235 233 rev3~ 100 90 3000 20;
#X obj 247 331 *~;
#X floatatom 317 299 5 0 0 0 - - -;
#X obj 26 288 *~;
#X floatatom 66 261 5 0 0 0 - - -;
#X text 355 299 wet reverb signal;
#X text 103 264 "dry" signal;
#X obj 409 32 receive reverbWetDry;
#X floatatom 410 59 5 0 0 0 - - -;
#X obj 82 215 expr 1 - $f1;
#X obj 340 3 loadbang;
#X msg 340 33 0;
#X connect 0 0 13 0;
#X connect 0 0 10 0;
#X connect 2 0 10 2;
#X connect 4 0 10 3;
#X connect 6 0 10 4;
#X connect 7 0 10 5;
#X connect 10 0 11 0;
#X connect 10 1 11 0;
#X connect 10 2 11 0;
#X connect 10 3 11 0;
#X connect 11 0 1 0;
#X connect 12 0 11 1;
#X connect 13 0 1 0;
#X connect 14 0 13 1;
#X connect 17 0 18 0;
#X connect 18 0 12 0;
#X connect 18 0 19 0;
#X connect 19 0 14 0;
#X connect 20 0 21 0;
#X connect 21 0 18 0;
#X restore 329 1443 pd reverb;
#X obj 427 1450 hsl 128 15 0 1 0 0 reverbWetDry reverbWetDry Reverb:_Dry_---_Wet
-2 -8 0 10 -262144 -1 -1 0 1;
#X obj 712 991 hsl 128 15 0 1 0 0 lopGain lopGain LowPass_Gain -2 -8
0 10 -262144 -1 -1 0 1;
#X obj 569 988 hsl 128 15 50 4000 0 0 lopFreq lopFreq LowPass_Frequency
-2 -8 0 10 -262144 -1 -1 0 1;
#X obj 712 1034 hsl 128 15 0 1 0 0 bpGain bpGain BandPass_Gain -2 -8
0 10 -262144 -1 -1 0 1;
#X obj 569 1029 hsl 128 15 1000 4000 0 0 bpFreq bpFreq BandPass_Frequency
-2 -8 0 10 -262144 -1 -1 0 1;
#X obj 712 1078 hsl 128 15 0 1 0 0 hpGain hpGain HighPass_Gain -2 -8
0 10 -262144 -1 -1 0 1;
#X obj 567 1074 hsl 128 15 1000 4000 0 0 hpFreq hpFreq HighPass_Frequency
-2 -8 0 10 -262144 -1 -1 0 1;
#X floatatom 427 138 5 0 0 0 - - -;
#X floatatom 421 43 5 0 0 0 - - -;
#X floatatom 421 236 5 0 0 0 - - -;
#X obj 421 263 s oscpitch3;
#X obj 336 1354 *~;
#X floatatom 496 1293 5 0 0 0 - - -;
#X floatatom 477 1264 5 0 0 0 - - -;
#X floatatom 460 1239 5 0 0 0 - - -;
#X floatatom 425 1192 5 0 0 0 - - -;
#X floatatom 443 1217 5 0 0 0 - - -;
#X text 463 1190 peak level;
#X text 484 1212 attack duration (ms);
#X text 498 1234 decay duration (ms);
#X text 518 1260 sustain level (% of peak);
#X text 530 1290 release duration (ms);
#N canvas 251 52 1280 976 envelope_adsr 0;
#X obj 209 53 moses;
#X obj 112 56 inlet;
#X obj 112 92 sel 0;
#X msg 111 130 stop;
#X obj 209 93 t b b;
#X obj 258 125 t b;
#X obj 174 209 f \$1;
#X obj 174 245 pack 0 \$2;
#X msg 125 245 0;
#X obj 337 145 inlet;
#X obj 377 145 inlet;
#X obj 421 145 inlet;
#X obj 461 145 inlet;
#X obj 314 239 del \$2;
#X obj 314 265 f \$4;
#X obj 390 268 * \$1;
#X obj 389 299 pack 0 \$3;
#X obj 472 301 pack 0 \$5;
#X obj 518 269 inlet;
#X obj 354 358 line~;
#X obj 354 386 outlet~;
#X obj 313 299 * 0.5;
#X connect 0 0 4 0;
#X connect 0 1 5 0;
#X connect 1 0 2 0;
#X connect 2 0 3 0;
#X connect 2 0 17 0;
#X connect 2 1 0 0;
#X connect 3 0 13 0;
#X connect 4 0 5 0;
#X connect 4 1 8 0;
#X connect 5 0 6 0;
#X connect 5 0 13 0;
#X connect 6 0 7 0;
#X connect 7 0 19 0;
#X connect 8 0 19 0;
#X connect 9 0 15 1;
#X connect 9 0 6 1;
#X connect 10 0 13 1;
#X connect 10 0 7 1;
#X connect 11 0 16 1;
#X connect 12 0 14 1;
#X connect 13 0 14 0;
#X connect 14 0 21 0;
#X connect 15 0 16 0;
#X connect 16 0 19 0;
#X connect 17 0 19 0;
#X connect 18 0 17 1;
#X connect 19 0 20 0;
#X connect 21 0 15 0;
#X restore 402 1331 pd envelope_adsr;
#X msg 525 1160 1;
#X msg 562 1159 100;
#X msg 603 1159 0.8;
#X obj 548 1130 loadbang;
#X obj 519 1006 tgl 15 0 bypassFilterBank bypassFilterBank empty 17
7 0 10 -262144 -1 -1 0 1;
#X text 508 982 Bypass;
#X obj 44 274 vsl 15 128 0 127 0 0 empty empty empty 0 -9 0 10 -262144
-1 -1 0 1;
#X floatatom 43 425 5 0 0 0 - - -;
#X obj 44 119 key;
#X floatatom 44 144 5 0 0 0 - - -;
#X msg 43 212 0;
#X msg 79 213 3;
#X msg 115 214 5;
#X msg 150 215 7;
#X obj 78 494 +;
#X floatatom 78 522 5 0 0 0 - - -;
#X obj 136 428 bng 15 250 50 0 empty empty empty 17 7 0 10 -262144
-1 -1;
#X obj 44 164 select 97 115 100 102 103;
#X msg 186 215 10;
#X obj 390 1169 tgl 15 0 empty empty empty 17 7 0 10 -262144 -1 -1
0 1;
#N canvas 270 86 1178 553 chorus 0;
#X obj 23 259 delwrite~ \$0-delay 1000;
#X obj 221 106 osc~ 0.05;
#X obj 221 131 *~ 10;
#X obj 376 130 *~ 10;
#X obj 221 156 +~ 11;
#X obj 376 155 +~ 21;
#X obj 376 105 osc~ 0.08;
#X obj 511 135 *~ 10;
#X obj 511 110 osc~ 0.13;
#X obj 511 160 +~ 13;
#X obj 694 142 *~ 10;
#X obj 694 167 +~ 55;
#X obj 694 117 osc~ 0.03;
#X obj 839 168 +~ 87;
#X obj 839 118 osc~ 0.015;
#X obj 985 114 osc~ 0.12;
#X obj 985 164 +~ 67;
#X obj 985 139 *~ 5;
#X obj 839 143 *~ 15;
#X obj 221 184 vd~ \$0-delay;
#X obj 376 183 vd~ \$0-delay;
#X obj 511 188 vd~ \$0-delay;
#X obj 694 195 vd~ \$0-delay;
#X obj 839 196 vd~ \$0-delay;
#X obj 985 192 vd~ \$0-delay;
#X obj 61 145 nbx 5 14 -1e+037 1e+037 0 0 empty empty empty 0 -8 0
10 -262144 -1 -1 0 256;
#X obj 22 92 inlet~;
#X obj 532 418 outlet~;
#X obj 630 416 outlet~;
#X obj 271 269 *~ 0.05;
#X obj 214 270 *~ 0.95;
#X obj 1032 261 *~ 0.95;
#X obj 975 262 *~ 0.05;
#X obj 884 262 *~ 0.85;
#X obj 368 266 *~ 0.85;
#X obj 498 267 *~ 0.7;
#X obj 744 263 *~ 0.7;
#X obj 827 263 *~ 0.15;
#X obj 687 264 *~ 0.3;
#X obj 555 266 *~ 0.3;
#X obj 425 265 *~ 0.15;
#X obj 222 221 /~ 6;
#X obj 375 224 /~ 6;
#X obj 512 221 /~ 6;
#X obj 696 226 /~ 6;
#X obj 841 224 /~ 6;
#X obj 988 225 /~ 6;
#X obj 23 172 *~ 1;
#X connect 1 0 2 0;
#X connect 2 0 4 0;
#X connect 3 0 5 0;
#X connect 4 0 19 0;
#X connect 5 0 20 0;
#X connect 6 0 3 0;
#X connect 7 0 9 0;
#X connect 8 0 7 0;
#X connect 9 0 21 0;
#X connect 10 0 11 0;
#X connect 11 0 22 0;
#X connect 12 0 10 0;
#X connect 13 0 23 0;
#X connect 14 0 18 0;
#X connect 15 0 17 0;
#X connect 16 0 24 0;
#X connect 17 0 16 0;
#X connect 18 0 13 0;
#X connect 19 0 41 0;
#X connect 20 0 42 0;
#X connect 21 0 43 0;
#X connect 22 0 44 0;
#X connect 23 0 45 0;
#X connect 24 0 46 0;
#X connect 25 0 47 1;
#X connect 26 0 47 0;
#X connect 29 0 28 0;
#X connect 30 0 27 0;
#X connect 31 0 28 0;
#X connect 32 0 27 0;
#X connect 33 0 28 0;
#X connect 34 0 27 0;
#X connect 35 0 27 0;
#X connect 36 0 28 0;
#X connect 37 0 27 0;
#X connect 38 0 27 0;
#X connect 39 0 28 0;
#X connect 40 0 28 0;
#X connect 41 0 30 0;
#X connect 41 0 29 0;
#X connect 42 0 34 0;
#X connect 42 0 40 0;
#X connect 43 0 35 0;
#X connect 43 0 39 0;
#X connect 44 0 36 0;
#X connect 44 0 38 0;
#X connect 45 0 33 0;
#X connect 45 0 37 0;
#X connect 46 0 31 0;
#X connect 46 0 32 0;
#X connect 47 0 0 0;
#X restore 295 838 pd chorus;
#N canvas 124 135 364 640 flanger 0;
#X obj 75 208 +~ 1;
#X obj 75 235 *~ 0.5;
#X obj 74 417 vd~ \$0-delay1, f 16;
#X text 73 108 Low Frequency Oscillator;
#X text 203 263 Depth (ms);
#X obj 74 513 *~ 1;
#X text 87 546 y[n] = x[n] + ax[n-t];
#X text 163 487 Feedback (0-1);
#X obj 75 181 osc~ 1;
#X text 117 513 ax[n-t];
#X text 131 156 Rate (Hz);
#X obj 45 545 +~, f 4;
#X obj 75 159 nbx 5 14 -1e+037 1e+037 0 0 empty \$0-rate empty 0 -8
0 10 -262144 -1 -1 0 256;
#X obj 144 267 nbx 5 14 0 1e+037 0 0 empty \$0-depth empty 0 -8 0 10
-262144 -1 -1 0 256;
#X obj 147 356 nbx 5 14 0 1e+037 0 0 empty \$0-shift empty 0 -8 0 10
-262144 -1 -1 0 256;
#X obj 103 489 nbx 5 14 0 1 0 0 empty \$0-feedback empty 0 -8 0 10
-262144 -1 -1 0 256;
#X obj 75 294 *~ 1, f 9;
#X obj 74 377 +~ 0.001, f 11;
#X obj 51 18 inlet~;
#X obj 46 606 outlet~;
#X obj 144 239 receive flangerDepth;
#X obj 147 327 receive flangerShift;
#X obj 105 455 receive flangerFeedback;
#X obj 79 63 delwrite~ \$0-delay1 5000;
#X obj 75 132 receive flangerRate;
#X connect 0 0 1 0;
#X connect 1 0 16 0;
#X connect 2 0 5 0;
#X connect 5 0 11 1;
#X connect 8 0 0 0;
#X connect 11 0 19 0;
#X connect 12 0 8 0;
#X connect 13 0 16 1;
#X connect 14 0 17 1;
#X connect 15 0 5 1;
#X connect 16 0 17 0;
#X connect 17 0 2 0;
#X connect 18 0 11 0;
#X connect 18 0 23 0;
#X connect 20 0 13 0;
#X connect 21 0 14 0;
#X connect 22 0 15 0;
#X connect 24 0 12 0;
#X restore 316 508 pd flanger;
#N canvas 70 339 447 447 xpand 0;
#X obj 77 49 inlet~;
#X obj 178 50 inlet~;
#X obj 131 110 +~;
#X obj 126 149 /~ 2;
#X obj 78 182 -~;
#X obj 173 182 -~;
#X obj 74 231 *~ 0;
#X obj 174 226 *~ 0;
#X obj 171 338 outlet~;
#X obj 71 337 outlet~;
#X floatatom 284 114 5 0 0 0 - - -;
#X obj 284 87 receive xpandAmount;
#X connect 0 0 2 0;
#X connect 0 0 4 0;
#X connect 1 0 2 1;
#X connect 1 0 5 1;
#X connect 2 0 3 0;
#X connect 3 0 4 1;
#X connect 3 0 5 0;
#X connect 3 0 8 0;
#X connect 3 0 9 0;
#X connect 4 0 6 0;
#X connect 5 0 7 0;
#X connect 6 0 9 0;
#X connect 7 0 8 0;
#X connect 10 0 7 1;
#X connect 10 0 6 1;
#X connect 11 0 10 0;
#X restore 295 915 pd xpand;
#X obj 378 917 hsl 128 15 0 5 0 0 xpandAmount xpandAmount Xpand:_Amount
-2 -8 0 10 -262144 -1 -1 0 1;
#N canvas 62 84 710 599 filterbank 0;
#X obj 195 311 *~;
#X floatatom 210 283 5 0 0 0 - - -;
#X floatatom 384 152 5 0 0 0 - - -;
#X floatatom 245 142 5 0 0 0 - - -;
#X floatatom 586 148 5 0 0 0 - - -;
#X obj 360 321 *~;
#X floatatom 377 297 5 0 0 0 - - -;
#X obj 540 310 *~;
#X floatatom 557 286 5 0 0 0 - - -;
#X obj 360 71 inlet~;
#X obj 86 522 outlet~;
#X obj 247 113 receive lopFreq;
#X obj 211 254 receive lopGain;
#X obj 385 115 receive bpFreq;
#X obj 376 268 receive bpGain;
#X obj 586 122 receive hpFreq;
#X obj 558 258 receive hpGain;
#X obj 195 172 lop~ 50;
#X obj 542 175 hip~ 1000;
#X obj 34 210 *~;
#X floatatom 54 165 5 0 0 0 - - -;
#X text 91 167 "dry" signal;
#X obj 56 136 expr 1 - $f1;
#X obj 203 449 *~;
#X obj 73 88 r bypassFilterBank;
#X floatatom 232 402 5 0 0 0 - - -;
#X obj 43 55 loadbang;
#X msg 44 81 0;
#X obj 357 186 bp~ 1000 10;
#X connect 0 0 23 0;
#X connect 1 0 0 1;
#X connect 2 0 28 1;
#X connect 3 0 17 1;
#X connect 4 0 18 1;
#X connect 5 0 23 0;
#X connect 6 0 5 1;
#X connect 7 0 23 0;
#X connect 8 0 7 1;
#X connect 9 0 17 0;
#X connect 9 0 18 0;
#X connect 9 0 19 0;
#X connect 9 0 28 0;
#X connect 11 0 3 0;
#X connect 12 0 1 0;
#X connect 13 0 2 0;
#X connect 14 0 6 0;
#X connect 15 0 4 0;
#X connect 16 0 8 0;
#X connect 17 0 0 0;
#X connect 18 0 7 0;
#X connect 19 0 10 0;
#X connect 20 0 19 1;
#X connect 22 0 20 0;
#X connect 23 0 10 0;
#X connect 24 0 22 0;
#X connect 24 0 25 0;
#X connect 25 0 23 1;
#X connect 26 0 27 0;
#X connect 27 0 22 0;
#X connect 28 0 5 0;
#X restore 223 1004 pd filterbank;
#X obj 258 1356 *~;
#N canvas 940 295 740 505 reverb 0;
#X obj 162 49 inlet~;
#X obj 144 364 outlet~;
#X floatatom 444 156 0 0 120 0 - - -;
#X text 485 156 level \, dB;
#X floatatom 472 173 0 0 100 0 - - -;
#X text 513 173 liveness \, 0-100;
#X floatatom 507 197 4 0 5000 0 - - -;
#X floatatom 542 220 0 0 100 0 - - -;
#X text 555 195 crossover frequency \, Hz.;
#X text 578 222 HF damping \, percent;
#X obj 235 233 rev3~ 100 90 3000 20;
#X obj 247 331 *~;
#X floatatom 317 299 5 0 0 0 - - -;
#X obj 26 288 *~;
#X floatatom 66 261 5 0 0 0 - - -;
#X text 355 299 wet reverb signal;
#X text 103 264 "dry" signal;
#X obj 409 32 receive reverbWetDry;
#X floatatom 410 59 5 0 0 0 - - -;
#X obj 82 215 expr 1 - $f1;
#X obj 340 3 loadbang;
#X msg 340 33 0;
#X connect 0 0 13 0;
#X connect 0 0 10 0;
#X connect 2 0 10 2;
#X connect 4 0 10 3;
#X connect 6 0 10 4;
#X connect 7 0 10 5;
#X connect 10 0 11 0;
#X connect 10 1 11 0;
#X connect 10 2 11 0;
#X connect 10 3 11 0;
#X connect 11 0 1 0;
#X connect 12 0 11 1;
#X connect 13 0 1 0;
#X connect 14 0 13 1;
#X connect 17 0 18 0;
#X connect 18 0 12 0;
#X connect 18 0 19 0;
#X connect 19 0 14 0;
#X connect 20 0 21 0;
#X connect 21 0 18 0;
#X restore 242 1444 pd reverb;
#N canvas 183 60 636 669 masterGain 0;
#X obj 84 126 *~;
#X floatatom 104 102 5 0 0 0 - - -;
#X obj 106 73 receive mastergain;
#X obj 56 28 inlet~;
#X obj 76 191 outlet~;
#X connect 0 0 4 0;
#X connect 1 0 0 1;
#X connect 2 0 1 0;
#X connect 3 0 0 0;
#X restore 219 1552 pd masterGain;
#X obj 411 530 hsl 128 15 0 1 0 0 flangerShift flangerShift Flanger:_Shift
-2 -8 0 10 -262144 -1 -1 0 1;
#X obj 408 493 hsl 128 15 0 1 0 0 flangerDepth flangerDepth Flanger:_Depth
-2 -8 0 10 -262144 -1 -1 0 1;
#X obj 411 572 hsl 128 15 0 1 0 0 flangerFeedback flangerFeedback Flanger:_Feedback
-2 -8 0 10 -262144 -1 -1 0 1;
#X obj 407 458 hsl 128 15 0 5 0 0 flangerRate flangerRate Flanger:_Rate
-2 -8 0 10 -262144 -1 -1 0 1;
#N canvas 81 165 504 767 phasor 0;
#X obj 113 164 +~ 1;
#X obj 113 191 *~ 0.5;
#X text 110 70 Low Frequency Oscillator;
#X text 199 487 x[n-t];
#X text 188 365 t (ms);
#X text 241 219 Depth (ms);
#X text 48 527 x[n];
#X obj 113 561 *~ 1;
#X text 126 600 y[n] = x[n] + ax[n-t];
#X text 228 537 Feedback (0-1);
#X obj 113 137 osc~ 1;
#X text 156 561 ax[n-t];
#X text 169 112 Rate (Hz);
#X text 240 304 Shift (ms);
#X obj 84 599 +~, f 4;
#X obj 113 115 nbx 5 14 -1e+037 1e+037 0 0 empty \$0-rate empty 0 -8
0 10 -262144 -1 -1 0 256;
#X obj 182 223 nbx 5 14 0 1e+037 0 0 empty \$0-depth empty 0 -8 0 10
-262144 -1 -1 0 256;
#X obj 180 308 nbx 5 14 0 1e+037 0 0 empty \$0-shift empty 0 -8 0 10
-262144 -1 -1 0 256;
#X obj 168 539 nbx 5 14 0 1 0 0 empty \$0-feedback empty 0 -8 0 10
-262144 -1 -1 0 256;
#N canvas 0 23 622 635 apset~ 0;
#N canvas 0 22 450 300 ap~ 0;
#X obj 127 160 rpole~;
#X obj 127 135 rzero_rev~;
#X obj 127 92 inlet~;
#X obj 127 185 outlet~;
#X obj 204 92 inlet~;
#X connect 0 0 3 0;
#X connect 1 0 0 0;
#X connect 2 0 1 0;
#X connect 4 0 1 1;
#X connect 4 0 0 1;
#X restore 155 36 pd ap~;
#N canvas 0 22 450 300 ap~ 0;
#X obj 127 160 rpole~;
#X obj 127 135 rzero_rev~;
#X obj 127 92 inlet~;
#X obj 127 185 outlet~;
#X obj 204 92 inlet~;
#X connect 0 0 3 0;
#X connect 1 0 0 0;
#X connect 2 0 1 0;
#X connect 4 0 1 1;
#X connect 4 0 0 1;
#X restore 155 66 pd ap~;
#N canvas 0 22 450 300 ap~ 0;
#X obj 127 160 rpole~;
#X obj 127 135 rzero_rev~;
#X obj 127 92 inlet~;
#X obj 127 185 outlet~;
#X obj 204 92 inlet~;
#X connect 0 0 3 0;
#X connect 1 0 0 0;
#X connect 2 0 1 0;
#X connect 4 0 1 1;
#X connect 4 0 0 1;
#X restore 155 96 pd ap~;
#N canvas 0 22 450 300 ap~ 0;
#X obj 127 160 rpole~;
#X obj 127 135 rzero_rev~;
#X obj 127 92 inlet~;
#X obj 127 185 outlet~;
#X obj 204 92 inlet~;
#X connect 0 0 3 0;
#X connect 1 0 0 0;
#X connect 2 0 1 0;
#X connect 4 0 1 1;
#X connect 4 0 0 1;
#X restore 155 126 pd ap~;
#N canvas 0 22 450 300 ap~ 0;
#X obj 127 160 rpole~;
#X obj 127 135 rzero_rev~;
#X obj 127 92 inlet~;
#X obj 127 185 outlet~;
#X obj 204 92 inlet~;
#X connect 0 0 3 0;
#X connect 1 0 0 0;
#X connect 2 0 1 0;
#X connect 4 0 1 1;
#X connect 4 0 0 1;
#X restore 155 156 pd ap~;
#N canvas 0 22 450 300 ap~ 0;
#X obj 127 160 rpole~;
#X obj 127 135 rzero_rev~;
#X obj 127 92 inlet~;
#X obj 127 185 outlet~;
#X obj 204 92 inlet~;
#X connect 0 0 3 0;
#X connect 1 0 0 0;
#X connect 2 0 1 0;
#X connect 4 0 1 1;
#X connect 4 0 0 1;
#X restore 155 186 pd ap~;
#N canvas 0 22 450 300 ap~ 0;
#X obj 127 160 rpole~;
#X obj 127 135 rzero_rev~;
#X obj 127 92 inlet~;
#X obj 127 185 outlet~;
#X obj 204 92 inlet~;
#X connect 0 0 3 0;
#X connect 1 0 0 0;
#X connect 2 0 1 0;
#X connect 4 0 1 1;
#X connect 4 0 0 1;
#X restore 155 216 pd ap~;
#N canvas 0 22 450 300 ap~ 0;
#X obj 127 160 rpole~;
#X obj 127 135 rzero_rev~;
#X obj 127 92 inlet~;
#X obj 127 185 outlet~;
#X obj 204 92 inlet~;
#X connect 0 0 3 0;
#X connect 1 0 0 0;
#X connect 2 0 1 0;
#X connect 4 0 1 1;
#X connect 4 0 0 1;
#X restore 155 246 pd ap~;
#N canvas 0 22 450 300 ap~ 0;
#X obj 127 160 rpole~;
#X obj 127 135 rzero_rev~;
#X obj 127 92 inlet~;
#X obj 127 185 outlet~;
#X obj 204 92 inlet~;
#X connect 0 0 3 0;
#X connect 1 0 0 0;
#X connect 2 0 1 0;
#X connect 4 0 1 1;
#X connect 4 0 0 1;
#X restore 155 276 pd ap~;
#N canvas 0 22 450 300 ap~ 0;
#X obj 127 160 rpole~;
#X obj 127 135 rzero_rev~;
#X obj 127 92 inlet~;
#X obj 127 185 outlet~;
#X obj 204 92 inlet~;
#X connect 0 0 3 0;
#X connect 1 0 0 0;
#X connect 2 0 1 0;
#X connect 4 0 1 1;
#X connect 4 0 0 1;
#X restore 155 306 pd ap~;
#N canvas 0 22 450 300 ap~ 0;
#X obj 127 160 rpole~;
#X obj 127 135 rzero_rev~;
#X obj 127 92 inlet~;
#X obj 127 185 outlet~;
#X obj 204 92 inlet~;
#X connect 0 0 3 0;
#X connect 1 0 0 0;
#X connect 2 0 1 0;
#X connect 4 0 1 1;
#X connect 4 0 0 1;
#X restore 155 336 pd ap~;
#N canvas 0 22 450 300 ap~ 0;
#X obj 127 160 rpole~;
#X obj 127 135 rzero_rev~;
#X obj 127 92 inlet~;
#X obj 127 185 outlet~;
#X obj 204 92 inlet~;
#X connect 0 0 3 0;
#X connect 1 0 0 0;
#X connect 2 0 1 0;
#X connect 4 0 1 1;
#X connect 4 0 0 1;
#X restore 155 366 pd ap~;
#N canvas 0 22 450 300 ap~ 0;
#X obj 127 160 rpole~;
#X obj 127 135 rzero_rev~;
#X obj 127 92 inlet~;
#X obj 127 185 outlet~;
#X obj 204 92 inlet~;
#X connect 0 0 3 0;
#X connect 1 0 0 0;
#X connect 2 0 1 0;
#X connect 4 0 1 1;
#X connect 4 0 0 1;
#X restore 155 396 pd ap~;
#N canvas 0 22 450 300 ap~ 0;
#X obj 127 160 rpole~;
#X obj 127 135 rzero_rev~;
#X obj 127 92 inlet~;
#X obj 127 185 outlet~;
#X obj 204 92 inlet~;
#X connect 0 0 3 0;
#X connect 1 0 0 0;
#X connect 2 0 1 0;
#X connect 4 0 1 1;
#X connect 4 0 0 1;
#X restore 155 426 pd ap~;
#N canvas 0 22 450 300 ap~ 0;
#X obj 127 160 rpole~;
#X obj 127 135 rzero_rev~;
#X obj 127 92 inlet~;
#X obj 127 185 outlet~;
#X obj 204 92 inlet~;
#X connect 0 0 3 0;
#X connect 1 0 0 0;
#X connect 2 0 1 0;
#X connect 4 0 1 1;
#X connect 4 0 0 1;
#X restore 155 456 pd ap~;
#N canvas 0 22 450 300 ap~ 0;
#X obj 127 160 rpole~;
#X obj 127 135 rzero_rev~;
#X obj 127 92 inlet~;
#X obj 127 185 outlet~;
#X obj 204 92 inlet~;
#X connect 0 0 3 0;
#X connect 1 0 0 0;
#X connect 2 0 1 0;
#X connect 4 0 1 1;
#X connect 4 0 0 1;
#X restore 155 486 pd ap~;
#X obj 155 6 inlet~;
#X obj 225 6 inlet~;
#X obj 155 511 outlet~;
#X connect 0 0 1 0;
#X connect 1 0 2 0;
#X connect 2 0 3 0;
#X connect 3 0 4 0;
#X connect 4 0 5 0;
#X connect 5 0 6 0;
#X connect 6 0 7 0;
#X connect 7 0 8 0;
#X connect 8 0 9 0;
#X connect 9 0 10 0;
#X connect 10 0 11 0;
#X connect 11 0 12 0;
#X connect 12 0 13 0;
#X connect 13 0 14 0;
#X connect 14 0 15 0;
#X connect 15 0 18 0;
#X connect 16 0 0 0;
#X connect 17 0 0 1;
#X connect 17 0 1 1;
#X connect 17 0 2 1;
#X connect 17 0 3 1;
#X connect 17 0 4 1;
#X connect 17 0 5 1;
#X connect 17 0 6 1;
#X connect 17 0 7 1;
#X connect 17 0 8 1;
#X connect 17 0 9 1;
#X connect 17 0 10 1;
#X connect 17 0 11 1;
#X connect 17 0 12 1;
#X connect 17 0 13 1;
#X connect 17 0 14 1;
#X connect 17 0 15 1;
#X restore 113 488 pd apset~;
#X obj 113 250 *~ 0.3, f 9;
#X obj 114 330 +~ 0.6, f 11;
#X obj 181 464 clip~ 0 1;
#X obj 67 37 inlet~;
#X obj 82 672 outlet~;
#X obj 114 91 receive phasorRate;
#X obj 185 197 receive phasorDepth;
#X obj 182 281 receive phasorShift;
#X obj 168 515 receive phasorFeedback;
#X connect 0 0 1 0;
#X connect 1 0 20 0;
#X connect 7 0 14 1;
#X connect 10 0 0 0;
#X connect 14 0 24 0;
#X connect 15 0 10 0;
#X connect 16 0 20 1;
#X connect 17 0 21 1;
#X connect 18 0 7 1;
#X connect 19 0 7 0;
#X connect 20 0 21 0;
#X connect 21 0 22 0;
#X connect 22 0 19 1;
#X connect 23 0 14 0;
#X connect 23 0 19 0;
#X connect 25 0 15 0;
#X connect 26 0 16 0;
#X connect 27 0 17 0;
#X connect 28 0 18 0;
#X restore 310 716 pd phasor;
#X obj 406 735 hsl 128 15 0 1 0 0 phasorShift phasorShift Phasor:_Shift
-2 -8 0 10 -262144 -1 -1 0 1;
#X obj 403 698 hsl 128 15 0 1 0 0 phasorDepth phasorDepth Phasor:_Depth
-2 -8 0 10 -262144 -1 -1 0 1;
#X obj 406 777 hsl 128 15 0 1 0 0 phasorFeedback phasorFeedback Phasor:_Feedback
-2 -8 0 10 -262144 -1 -1 0 1;
#X obj 402 663 hsl 128 15 0 5 0 0 phasorRate phasorRate Phasor:_Rate
-2 -8 0 10 -262144 -1 -1 0 1;
#X obj 814 162 hsl 128 15 0 1 0 0 oscgain5 oscgain5 Osc_Gain5 -2 -8
0 10 -262144 -1 -1 0 1;
#X obj 819 71 hsl 128 15 0 1 0 0 oscgain4 oscgain4 Osc_Gain4 -2 -8
0 10 -262144 -1 -1 0 1;
#X obj 835 244 hsl 128 15 0 1 0 0 oscgain6 oscgain6 Osc_Gain6 -2 -8
0 10 -262144 -1 -1 0 1;
#X floatatom 707 40 5 0 0 0 - - -;
#X floatatom 713 138 5 0 0 0 - - -;
#X floatatom 733 228 5 0 0 0 - - -;
#X obj 707 67 s oscpitch4;
#X obj 713 165 s oscpitch5;
#X obj 733 255 s oscpitch6;
#X obj 77 549 s pitch1;
#X obj 295 163 r pitch1;
#N canvas 1402 254 2120 1385 oscillators1 0;
#X obj 468 3 inlet;
#X obj 520 537 outlet~;
#X obj 60 380 *~;
#X obj 55 174 +;
#X obj 41 108 receive oscpitch1;
#X floatatom 467 41 5 0 0 0 - - -;
#X obj 54 198 mtof;
#X floatatom 10 233 5 0 0 0 - - -;
#X obj 36 151 bng 15 250 50 0 empty empty empty 17 7 0 10 -262144 -1
-1;
#X obj 55 227 osc~;
#X obj 227 380 *~;
#X obj 222 174 +;
#X obj 221 198 mtof;
#X floatatom 177 233 5 0 0 0 - - -;
#X obj 212 134 bng 15 250 50 0 empty empty empty 17 7 0 10 -262144
-1 -1;
#X obj 222 227 osc~;
#X obj 398 389 *~;
#X obj 393 183 +;
#X obj 392 207 mtof;
#X floatatom 348 242 5 0 0 0 - - -;
#X obj 383 143 bng 15 250 50 0 empty empty empty 17 7 0 10 -262144
-1 -1;
#X obj 393 236 osc~;
#X obj 241 110 receive oscpitch2;
#X obj 412 119 receive oscpitch3;
#X obj 595 388 *~;
#X obj 590 182 +;
#X obj 589 206 mtof;
#X floatatom 545 241 5 0 0 0 - - -;
#X obj 571 159 bng 15 250 50 0 empty empty empty 17 7 0 10 -262144
-1 -1;
#X obj 590 235 osc~;
#X obj 751 376 *~;
#X obj 746 170 +;
#X obj 745 194 mtof;
#X floatatom 695 226 5 0 0 0 - - -;
#X obj 747 142 bng 15 250 50 0 empty empty empty 17 7 0 10 -262144
-1 -1;
#X obj 746 223 osc~;
#X obj 922 385 *~;
#X obj 917 179 +;
#X obj 916 203 mtof;
#X floatatom 872 238 5 0 0 0 - - -;
#X obj 907 139 bng 15 250 50 0 empty empty empty 17 7 0 10 -262144
-1 -1;
#X obj 917 232 osc~;
#X obj 575 120 receive oscpitch4;
#X obj 765 106 receive oscpitch5;
#X obj 936 115 receive oscpitch6;
#X floatatom 88 352 5 0 0 0 - - -;
#X floatatom 259 353 5 0 0 0 - - -;
#X floatatom 433 361 5 0 0 0 - - -;
#X floatatom 621 351 5 0 0 0 - - -;
#X floatatom 781 349 5 0 0 0 - - -;
#X floatatom 952 358 5 0 0 0 - - -;
#X msg 283 317 0;
#X msg 464 327 0;
#X msg 643 321 0;
#X msg 797 319 0;
#X msg 978 323 0;
#X obj 1891 941 send oscgain1;
#X obj 12 254 receive oscgain1;
#X obj 57 271 receive oscsilent1;
#X obj 192 254 receive oscgain2;
#X obj 223 275 receive oscsilent2;
#X obj 368 262 receive oscgain3;
#X obj 401 281 receive oscsilent3;
#X obj 544 257 receive oscgain4;
#X obj 582 278 receive oscsilent4;
#X obj 710 246 receive oscgain5;
#X obj 757 272 receive oscsilent5;
#X obj 892 257 receive oscgain6;
#X obj 936 279 receive oscsilent6;
#X msg 75 315 0.1;
#X msg 215 312 0.125;
#X msg 411 322 0.15;
#X msg 580 321 0.175;
#X msg 746 318 0.2;
#X msg 923 323 0.225;
#X msg 136 320 0.1;
#X connect 0 0 5 0;
#X connect 2 0 1 0;
#X connect 3 0 6 0;
#X connect 4 0 3 1;
#X connect 4 0 8 0;
#X connect 5 0 3 0;
#X connect 5 0 11 0;
#X connect 5 0 17 0;
#X connect 5 0 25 0;
#X connect 5 0 31 0;
#X connect 5 0 37 0;
#X connect 6 0 7 0;
#X connect 6 0 9 0;
#X connect 8 0 3 0;
#X connect 9 0 2 0;
#X connect 10 0 1 0;
#X connect 11 0 12 0;
#X connect 12 0 15 0;
#X connect 12 0 13 0;
#X connect 14 0 11 0;
#X connect 15 0 10 0;
#X connect 16 0 1 0;
#X connect 17 0 18 0;
#X connect 18 0 19 0;
#X connect 18 0 21 0;
#X connect 20 0 17 0;
#X connect 21 0 16 0;
#X connect 22 0 11 1;
#X connect 22 0 14 0;
#X connect 23 0 17 1;
#X connect 23 0 20 0;
#X connect 24 0 1 0;
#X connect 25 0 26 0;
#X connect 26 0 27 0;
#X connect 26 0 29 0;
#X connect 28 0 25 0;
#X connect 29 0 24 0;
#X connect 30 0 1 0;
#X connect 31 0 32 0;
#X connect 32 0 33 0;
#X connect 32 0 35 0;
#X connect 34 0 31 0;
#X connect 35 0 30 0;
#X connect 36 0 1 0;
#X connect 37 0 38 0;
#X connect 38 0 39 0;
#X connect 38 0 41 0;
#X connect 40 0 37 0;
#X connect 41 0 36 0;
#X connect 42 0 25 1;
#X connect 42 0 28 0;
#X connect 43 0 31 1;
#X connect 43 0 34 0;
#X connect 44 0 37 1;
#X connect 44 0 40 0;
#X connect 45 0 2 1;
#X connect 46 0 10 1;
#X connect 47 0 16 1;
#X connect 48 0 24 1;
#X connect 49 0 30 1;
#X connect 50 0 36 1;
#X connect 51 0 46 0;
#X connect 52 0 47 0;
#X connect 53 0 48 0;
#X connect 54 0 49 0;
#X connect 55 0 50 0;
#X connect 57 0 69 0;
#X connect 58 0 75 0;
#X connect 59 0 70 0;
#X connect 60 0 51 0;
#X connect 61 0 71 0;
#X connect 62 0 52 0;
#X connect 63 0 72 0;
#X connect 64 0 53 0;
#X connect 65 0 73 0;
#X connect 66 0 54 0;
#X connect 67 0 74 0;
#X connect 68 0 55 0;
#X connect 69 0 45 0;
#X connect 70 0 46 0;
#X connect 71 0 47 0;
#X connect 72 0 48 0;
#X connect 73 0 49 0;
#X connect 74 0 50 0;
#X connect 75 0 45 0;
#X restore 295 196 pd oscillators1;
#X obj 390 1098 inlet;
#X obj 232 1609 outlet~;
#X obj 333 1627 outlet~;
#X floatatom 851 477 5 0 0 0 - - -;
#X obj 800 475 tgl 15 0 empty empty empty 17 7 0 10 -262144 -1 -1 0
1;
#X obj 800 539 f;
#X obj 840 540 + 1;
#X obj 800 508 metro 500;
#X obj 800 573 mod 2;
#X obj 798 617 select 0 1;
#X obj 740 732 s osc1;
#X obj 420 15 r osc1;
#X obj 426 109 r osc2;
#X obj 421 208 r osc3;
#X obj 701 10 r osc4;
#X obj 713 106 r osc5;
#X obj 731 196 r osc6;
#X obj 827 736 s osc2;
#X floatatom 1028 466 5 0 0 0 - - -;
#X obj 977 464 tgl 15 0 empty empty empty 17 7 0 10 -262144 -1 -1 0
1;
#X obj 977 528 f;
#X obj 1017 529 + 1;
#X obj 977 497 metro 500;
#X obj 977 562 mod 2;
#X obj 975 606 select 0 1;
#X obj 895 723 s osc1;
#X obj 982 723 s osc2;
#X obj 1060 723 s osc3;
#X floatatom 1297 467 5 0 0 0 - - -;
#X obj 1246 465 tgl 15 0 empty empty empty 17 7 0 10 -262144 -1 -1
0 1;
#X obj 1246 529 f;
#X obj 1286 530 + 1;
#X obj 1246 498 metro 500;
#X obj 1246 563 mod 2;
#X obj 1244 607 select 0 1;
#X obj 1148 724 s osc1;
#X obj 1251 724 s osc2;
#X obj 1329 724 s osc3;
#X obj 1172 817 s osc4;
#X floatatom 1565 458 5 0 0 0 - - -;
#X obj 1514 456 tgl 15 0 empty empty empty 17 7 0 10 -262144 -1 -1
0 1;
#X obj 1514 520 f;
#X obj 1554 521 + 1;
#X obj 1514 489 metro 500;
#X obj 1514 554 mod 2;
#X obj 1512 598 select 0 1;
#X obj 1432 715 s osc1;
#X obj 1519 715 s osc2;
#X obj 1597 715 s osc3;
#X obj 1417 830 s osc4;
#X obj 1501 831 s osc5;
#X floatatom 1836 461 5 0 0 0 - - -;
#X obj 1785 459 tgl 15 0 empty empty empty 17 7 0 10 -262144 -1 -1
0 1;
#X obj 1785 523 f;
#X obj 1825 524 + 1;
#X obj 1785 492 metro 500;
#X obj 1785 557 mod 2;
#X obj 1797 602 select 0 1;
#X obj 1717 719 s osc1;
#X obj 1804 719 s osc2;
#X obj 1882 719 s osc3;
#X obj 1702 831 s osc4;
#X obj 1786 835 s osc5;
#X obj 1869 831 s osc6;
#X msg 768 445 0;
#X msg 807 445 1;
#X obj 1188 -5 key;
#X floatatom 1188 20 5 0 0 0 - - -;
#X obj 1192 55 select 49 50 51 52 53 54;
#X msg 950 428 0;
#X msg 989 428 1;
#X msg 1216 429 0;
#X msg 1255 429 1;
#X msg 1489 423 0;
#X msg 1528 423 1;
#X msg 1772 424 0;
#X msg 1811 424 1;
#X floatatom 685 475 5 0 0 0 - - -;
#X obj 634 474 tgl 15 0 empty empty empty 17 7 0 10 -262144 -1 -1 0
1;
#X obj 634 538 f;
#X obj 674 539 + 1;
#X obj 634 507 metro 500;
#X obj 634 572 mod 2;
#X obj 632 616 select 0 1;
#X obj 642 708 s osc1;
#X msg 602 444 0;
#X msg 641 444 1;
#X obj 570 492 s osc2;
#X obj 570 523 s osc3;
#X obj 571 558 s osc4;
#X obj 568 590 s osc5;
#X obj 566 622 s osc6;
#X obj 743 497 s osc3;
#X obj 744 532 s osc4;
#X obj 741 564 s osc5;
#X obj 739 596 s osc6;
#X obj 919 471 s osc4;
#X obj 916 503 s osc5;
#X obj 914 535 s osc6;
#X obj 1181 476 s osc5;
#X obj 1179 508 s osc6;
#X obj 1441 463 s osc6;
#X msg 625 669 12;
#X msg 666 667 7;
#X msg 746 670 12;
#X msg 783 669 7;
#X msg 825 670 16;
#X msg 862 675 14;
#X msg 901 661 12;
#X msg 938 660 7;
#X msg 988 661 16;
#X msg 1025 660 14;
#X msg 1066 661 21;
#X msg 1103 660 19;
#X msg 1170 662 7;
#X msg 1207 661 7;
#X msg 1257 662 12;
#X msg 1294 661 11;
#X msg 1335 662 16;
#X msg 1372 661 14;
#X msg 1155 777 19;
#X msg 1192 776 17;
#X obj 1245 826 s osc5;
#X msg 1246 781 23;
#X msg 1283 780 21;
#X msg 1438 653 12;
#X msg 1475 652 7;
#X msg 1525 653 16;
#X msg 1562 652 14;
#X msg 1603 653 19;
#X msg 1640 652 17;
#X msg 1423 768 23;
#X msg 1460 767 21;
#X msg 1507 769 26;
#X msg 1544 768 28;
#X msg 1723 654 0;
#X msg 1760 656 0;
#X msg 1810 657 12;
#X msg 1847 656 12;
#X msg 1888 657 16;
#X msg 1925 656 16;
#X msg 1708 769 19;
#X msg 1745 771 19;
#X msg 1792 773 26;
#X msg 1829 772 26;
#X msg 1875 769 31;
#X msg 1912 768 31;
#X msg 565 451 0;
#X obj 1839 222 send oscgain1;
#X obj 1852 259 send oscsilent1;
#X obj 2016 215 send oscgain2;
#X obj 1982 264 send oscsilent2;
#X obj 2140 217 send oscgain3;
#X obj 2139 260 send oscsilent3;
#X obj 2297 221 send oscgain4;
#X obj 2305 264 send oscsilent4;
#X obj 2444 221 send oscgain5;
#X obj 2447 264 send oscsilent5;
#X obj 2610 232 send oscgain6;
#X obj 2625 273 send oscsilent6;
#X obj 2252 -2 key;
#X floatatom 2252 23 5 0 0 0 - - -;
#X obj 2251 54 select 49 50 51 52 53 54;
#X obj 421 70 s oscpitch1;
#X obj 428 167 s oscpitch2;
#X obj 1118 895 send oscgain1;
#X obj 1244 894 send oscsilent1;
#X connect 3 0 84 0;
#X connect 6 0 54 0;
#X connect 8 0 21 0;
#X connect 9 0 3 0;
#X connect 17 0 246 0;
#X connect 18 0 245 0;
#X connect 19 0 20 0;
#X connect 21 0 9 0;
#X connect 22 0 32 5;
#X connect 23 0 32 4;
#X connect 24 0 32 3;
#X connect 25 0 32 1;
#X connect 26 0 32 2;
#X connect 32 0 21 1;
#X connect 32 0 58 1;
#X connect 33 0 25 0;
#X connect 34 0 26 0;
#X connect 34 0 24 0;
#X connect 34 0 22 0;
#X connect 35 0 23 0;
#X connect 36 0 33 0;
#X connect 36 0 34 0;
#X connect 36 0 35 0;
#X connect 39 0 40 0;
#X connect 40 0 47 0;
#X connect 41 0 42 0;
#X connect 42 0 50 0;
#X connect 43 0 47 1;
#X connect 43 0 49 0;
#X connect 44 0 47 1;
#X connect 44 0 49 0;
#X connect 45 0 47 1;
#X connect 45 0 49 0;
#X connect 46 0 47 1;
#X connect 46 0 49 0;
#X connect 47 0 48 0;
#X connect 48 0 79 0;
#X connect 49 0 47 0;
#X connect 50 0 43 0;
#X connect 50 1 44 0;
#X connect 50 2 45 0;
#X connect 50 3 46 0;
#X connect 50 4 51 0;
#X connect 51 0 47 1;
#X connect 51 0 49 0;
#X connect 52 0 32 0;
#X connect 53 0 55 0;
#X connect 53 1 55 1;
#X connect 54 0 65 0;
#X connect 55 0 57 0;
#X connect 55 1 8 0;
#X connect 57 0 58 0;
#X connect 58 0 59 0;
#X connect 59 0 60 0;
#X connect 60 0 83 0;
#X connect 65 0 53 0;
#X connect 73 0 76 0;
#X connect 74 0 77 0;
#X connect 75 0 78 0;
#X connect 80 0 81 0;
#X connect 81 0 6 0;
#X connect 82 0 52 0;
#X connect 85 0 89 1;
#X connect 86 0 89 0;
#X connect 87 0 88 0;
#X connect 87 0 90 0;
#X connect 88 0 87 1;
#X connect 89 0 87 0;
#X connect 90 0 91 0;
#X connect 91 0 186 0;
#X connect 91 0 188 0;
#X connect 91 1 187 0;
#X connect 91 1 189 0;
#X connect 93 0 18 0;
#X connect 94 0 17 0;
#X connect 95 0 19 0;
#X connect 96 0 73 0;
#X connect 97 0 74 0;
#X connect 98 0 75 0;
#X connect 100 0 104 1;
#X connect 101 0 104 0;
#X connect 102 0 103 0;
#X connect 102 0 105 0;
#X connect 103 0 102 1;
#X connect 104 0 102 0;
#X connect 105 0 106 0;
#X connect 106 0 190 0;
#X connect 106 0 192 0;
#X connect 106 0 194 0;
#X connect 106 1 191 0;
#X connect 106 1 193 0;
#X connect 106 1 195 0;
#X connect 110 0 114 1;
#X connect 111 0 114 0;
#X connect 112 0 113 0;
#X connect 112 0 115 0;
#X connect 113 0 112 1;
#X connect 114 0 112 0;
#X connect 115 0 116 0;
#X connect 116 0 196 0;
#X connect 116 0 198 0;
#X connect 116 0 200 0;
#X connect 116 0 202 0;
#X connect 116 0 205 0;
#X connect 116 0 247 0;
#X connect 116 1 197 0;
#X connect 116 1 199 0;
#X connect 116 1 201 0;
#X connect 116 1 203 0;
#X connect 116 1 206 0;
#X connect 116 1 248 0;
#X connect 121 0 125 1;
#X connect 122 0 125 0;
#X connect 123 0 124 0;
#X connect 123 0 126 0;
#X connect 124 0 123 1;
#X connect 125 0 123 0;
#X connect 126 0 127 0;
#X connect 127 0 207 0;
#X connect 127 0 209 0;
#X connect 127 0 211 0;
#X connect 127 0 213 0;
#X connect 127 0 215 0;
#X connect 127 1 208 0;
#X connect 127 1 210 0;
#X connect 127 1 212 0;
#X connect 127 1 214 0;
#X connect 127 1 216 0;
#X connect 133 0 137 1;
#X connect 134 0 137 0;
#X connect 135 0 136 0;
#X connect 135 0 138 0;
#X connect 136 0 135 1;
#X connect 137 0 135 0;
#X connect 138 0 139 0;
#X connect 139 0 217 0;
#X connect 139 0 219 0;
#X connect 139 0 221 0;
#X connect 139 0 223 0;
#X connect 139 0 225 0;
#X connect 139 0 227 0;
#X connect 139 1 218 0;
#X connect 139 1 220 0;
#X connect 139 1 222 0;
#X connect 139 1 224 0;
#X connect 139 1 226 0;
#X connect 139 1 228 0;
#X connect 146 0 86 0;
#X connect 146 0 174 0;
#X connect 146 0 175 0;
#X connect 146 0 176 0;
#X connect 146 0 177 0;
#X connect 147 0 86 0;
#X connect 148 0 149 0;
#X connect 149 0 150 0;
#X connect 150 0 151 0;
#X connect 150 0 153 0;
#X connect 150 0 155 0;
#X connect 150 0 157 0;
#X connect 150 0 168 0;
#X connect 150 0 146 0;
#X connect 150 0 229 0;
#X connect 150 1 147 0;
#X connect 150 1 167 0;
#X connect 150 1 151 0;
#X connect 150 1 153 0;
#X connect 150 1 155 0;
#X connect 150 1 157 0;
#X connect 150 2 152 0;
#X connect 150 2 167 0;
#X connect 150 2 146 0;
#X connect 150 2 153 0;
#X connect 150 2 155 0;
#X connect 150 2 157 0;
#X connect 150 3 154 0;
#X connect 150 3 151 0;
#X connect 150 3 146 0;
#X connect 150 3 167 0;
#X connect 150 3 155 0;
#X connect 150 3 157 0;
#X connect 150 4 156 0;
#X connect 150 4 157 0;
#X connect 150 4 153 0;
#X connect 150 4 151 0;
#X connect 150 4 146 0;
#X connect 150 4 167 0;
#X connect 150 5 158 0;
#X connect 150 5 155 0;
#X connect 150 5 153 0;
#X connect 150 5 151 0;
#X connect 150 5 146 0;
#X connect 150 5 167 0;
#X connect 151 0 101 0;
#X connect 151 0 178 0;
#X connect 151 0 179 0;
#X connect 151 0 180 0;
#X connect 152 0 101 0;
#X connect 153 0 111 0;
#X connect 153 0 181 0;
#X connect 153 0 182 0;
#X connect 154 0 111 0;
#X connect 155 0 122 0;
#X connect 155 0 183 0;
#X connect 156 0 122 0;
#X connect 157 0 134 0;
#X connect 158 0 134 0;
#X connect 159 0 163 1;
#X connect 160 0 163 0;
#X connect 161 0 162 0;
#X connect 161 0 164 0;
#X connect 162 0 161 1;
#X connect 163 0 161 0;
#X connect 164 0 165 0;
#X connect 165 0 184 0;
#X connect 165 1 185 0;
#X connect 167 0 160 0;
#X connect 167 0 170 0;
#X connect 167 0 171 0;
#X connect 167 0 172 0;
#X connect 167 0 173 0;
#X connect 167 0 169 0;
#X connect 168 0 160 0;
#X connect 184 0 166 0;
#X connect 185 0 166 0;
#X connect 186 0 92 0;
#X connect 187 0 92 0;
#X connect 188 0 99 0;
#X connect 189 0 99 0;
#X connect 190 0 107 0;
#X connect 191 0 107 0;
#X connect 192 0 108 0;
#X connect 193 0 108 0;
#X connect 194 0 109 0;
#X connect 195 0 109 0;
#X connect 196 0 117 0;
#X connect 197 0 117 0;
#X connect 198 0 118 0;
#X connect 199 0 118 0;
#X connect 200 0 119 0;
#X connect 201 0 119 0;
#X connect 202 0 120 0;
#X connect 203 0 120 0;
#X connect 205 0 204 0;
#X connect 206 0 204 0;
#X connect 207 0 128 0;
#X connect 208 0 128 0;
#X connect 209 0 129 0;
#X connect 210 0 129 0;
#X connect 211 0 130 0;
#X connect 212 0 130 0;
#X connect 213 0 131 0;
#X connect 214 0 131 0;
#X connect 215 0 132 0;
#X connect 216 0 132 0;
#X connect 217 0 140 0;
#X connect 218 0 140 0;
#X connect 219 0 141 0;
#X connect 220 0 141 0;
#X connect 221 0 142 0;
#X connect 222 0 142 0;
#X connect 223 0 143 0;
#X connect 224 0 143 0;
#X connect 225 0 144 0;
#X connect 226 0 144 0;
#X connect 227 0 145 0;
#X connect 228 0 145 0;
#X connect 229 0 169 0;
#X connect 242 0 243 0;
#X connect 243 0 244 0;
#X connect 244 0 241 0;
#X connect 244 0 239 0;
#X connect 244 0 237 0;
#X connect 244 0 235 0;
#X connect 244 0 233 0;
#X connect 244 0 230 0;
#X connect 244 1 241 0;
#X connect 244 1 239 0;
#X connect 244 1 237 0;
#X connect 244 1 235 0;
#X connect 244 1 232 0;
#X connect 244 1 230 0;
#X connect 244 2 241 0;
#X connect 244 2 239 0;
#X connect 244 2 237 0;
#X connect 244 2 234 0;
#X connect 244 2 232 0;
#X connect 244 2 230 0;
#X connect 244 3 241 0;
#X connect 244 3 238 0;
#X connect 244 3 236 0;
#X connect 244 3 234 0;
#X connect 244 3 232 0;
#X connect 244 3 230 0;
#X connect 244 4 241 0;
#X connect 244 4 238 0;
#X connect 244 4 236 0;
#X connect 244 4 234 0;
#X connect 244 4 232 0;
#X connect 244 4 230 0;
#X connect 244 5 240 0;
#X connect 244 5 238 0;
#X connect 244 5 236 0;
#X connect 244 5 234 0;
#X connect 244 5 232 0;
#X connect 244 5 230 0;
#X restore 43 215 pd synth1;
#X obj 40 169 tgl 15 0 empty empty empty 17 7 0 10 -262144 -1 -1 0
1;
#X obj 56 298 dac~;
#N canvas 821 327 939 1030 rolling 0;
#X obj 30 283 hip~ 200;
#X obj 30 166 *~ 0.1;
#X obj 30 189 sqrt~;
#X obj 30 24 vline~;
#X obj 30 90 cos~;
#X obj 30 112 lop~ 0.1;
#X obj 30 68 -~ 0.25;
#X obj 30 46 *~ 0.5;
#X obj 30 134 *~ 5;
#X text 101 2 press repeatedly;
#N canvas 216 38 368 237 regular-roll 0;
#X obj 74 193 rzero~ 0.9;
#X obj -2 66 phasor~ 1;
#X obj -2 139 wrap~;
#X obj 51 139 wrap~;
#X obj 102 139 wrap~;
#X obj 155 138 wrap~;
#X obj 68 66 unpack f f f f f f f f;
#X msg 89 44 2 0.1 3 0.05 4.2 0.02 5.6 0.012;
#X msg 107 23 1.3 0.1 1.7 0.05 2.4 0.02 8.1 0.012;
#X obj 89 -2 loadbang;
#X text 179 2 roll pattern;
#X obj 74 216 outlet~;
#X obj -2 -2 inlet~ speed;
#X obj -2 119 *~;
#X obj 51 119 *~;
#X obj 102 119 *~;
#X obj 155 118 *~;
#X obj -2 160 *~;
#X obj 51 160 *~;
#X obj 102 160 *~;
#X obj 155 160 *~;
#X connect 0 0 11 0;
#X connect 1 0 13 0;
#X connect 1 0 14 0;
#X connect 1 0 15 0;
#X connect 1 0 16 0;
#X connect 2 0 17 0;
#X connect 3 0 18 0;
#X connect 4 0 19 0;
#X connect 5 0 20 0;
#X connect 6 0 13 1;
#X connect 6 1 17 1;
#X connect 6 2 14 1;
#X connect 6 3 18 1;
#X connect 6 4 15 1;
#X connect 6 5 19 1;
#X connect 6 6 16 1;
#X connect 6 7 20 1;
#X connect 7 0 6 0;
#X connect 8 0 6 0;
#X connect 9 0 7 0;
#X connect 12 0 1 0;
#X connect 13 0 2 0;
#X connect 14 0 3 0;
#X connect 15 0 4 0;
#X connect 16 0 5 0;
#X connect 17 0 0 0;
#X connect 18 0 0 0;
#X connect 19 0 0 0;
#X connect 20 0 0 0;
#X restore 83 167 pd regular-roll;
#N canvas 672 161 251 307 irregular-ground 0;
#X obj 18 -50 noise~;
#X obj 18 -13 max~ 0;
#X msg 938 99 0.54;
#X obj 19 109 samphold~;
#X obj 19 132 rzero~ 0.99;
#X obj 20 208 outlet~;
#X obj 141 6 phasor~ 12;
#X obj 76 56 +~;
#X obj 76 9 *~ 0.001;
#X obj 19 182 *~;
#X obj 142 -23 *~ 100;
#X obj 142 -70 inlet~ speed;
#X obj 19 155 *~ 0.05;
#X connect 0 0 1 0;
#X connect 0 0 8 0;
#X connect 1 0 3 0;
#X connect 3 0 4 0;
#X connect 4 0 12 0;
#X connect 6 0 7 1;
#X connect 7 0 3 1;
#X connect 8 0 7 0;
#X connect 9 0 5 0;
#X connect 10 0 6 0;
#X connect 11 0 10 0;
#X connect 11 0 9 1;
#X connect 12 0 9 0;
#X restore 83 224 pd irregular-ground;
#X obj 30 260 *~;
#X obj 83 199 *~ 0.5;
#N canvas 231 301 272 275 tincan 0;
#X obj 76 190 *~ 1000;
#X obj 76 232 *~ 0.4;
#X obj -2 0 inlet~;
#X obj 94 1 loadbang;
#X obj 76 253 outlet~;
#X msg 94 23 359 426 1748 3000 123;
#X obj 94 45 unpack f f f f f;
#X obj -2 135 bp~ 1 1;
#X obj 76 135 bp~ 1 1;
#X obj 143 136 bp~ 1 1;
#X obj 213 136 bp~ 1 1;
#X obj 76 157 *~ 0.3;
#X obj 213 157 *~ 0.2;
#X obj -2 158 *~ 0.2;
#X obj 143 157 *~ 0.3;
#X obj 76 211 clip~ -0.3 0.3;
#X connect 0 0 15 0;
#X connect 1 0 4 0;
#X connect 2 0 7 0;
#X connect 2 0 8 0;
#X connect 2 0 9 0;
#X connect 2 0 10 0;
#X connect 3 0 5 0;
#X connect 5 0 6 0;
#X connect 6 0 7 1;
#X connect 6 1 8 1;
#X connect 6 2 9 1;
#X connect 6 3 10 1;
#X connect 6 4 8 2;
#X connect 6 4 7 2;
#X connect 6 4 9 2;
#X connect 6 4 10 2;
#X connect 7 0 13 0;
#X connect 8 0 11 0;
#X connect 9 0 14 0;
#X connect 10 0 12 0;
#X connect 11 0 0 0;
#X connect 12 0 0 0;
#X connect 13 0 0 0;
#X connect 14 0 0 0;
#X connect 15 0 1 0;
#X coords 0 0 1 1 240 160 0;
#X restore 30 305 pd tincan;
#X obj 29 -29 inlet;
#X obj 19 341 outlet~;
#X obj 74 341 outlet~;
#X msg 30 2 0 \, 1 100;
#X connect 0 0 14 0;
#X connect 1 0 2 0;
#X connect 2 0 12 0;
#X connect 3 0 7 0;
#X connect 4 0 5 0;
#X connect 5 0 8 0;
#X connect 6 0 4 0;
#X connect 7 0 6 0;
#X connect 8 0 1 0;
#X connect 8 0 10 0;
#X connect 8 0 13 0;
#X connect 10 0 12 1;
#X connect 11 0 12 1;
#X connect 12 0 0 0;
#X connect 13 0 11 0;
#X connect 14 0 16 0;
#X connect 14 0 17 0;
#X connect 15 0 18 0;
#X connect 18 0 3 0;
#X restore 192 245 pd rolling;
#X obj 193 174 f;
#X obj 233 173 + 1;
#X obj 191 206 mod 2;
#X floatatom 252 96 5 0 0 0 - - -;
#X obj 188 91 tgl 15 0 empty empty empty 17 7 0 10 -262144 -1 -1 0
1;
#X obj 213 289 dac~;
#X obj 192 138 metro 500;
#X obj 19 21 tgl 15 0 empty empty empty 17 7 0 10 -262144 -1 -1 1 1
;
#X msg 19 46 \; pd dsp \$1;
#N canvas 643 23 1037 855 host-voice 0;
#X obj 364 297 sig~ 1;
#X obj 393 361 osc~;
#X obj 393 384 *~ 24;
#X obj 393 409 *~;
#X obj 394 435 +~ 1;
#X obj 366 470 /~;
#X obj 366 517 -~ 0.5;
#X obj 318 580 bp~ 1 34;
#X obj 396 580 bp~ 1 34;
#X obj 472 579 bp~ 1 34;
#X obj 385 652 clip~ -1 1;
#X obj 521 501 unpack f f f;
#X msg 561 205 i;
#X msg 595 205 I;
#X msg 636 205 E;
#X msg 674 207 ae;
#X msg 711 209 ^;
#X msg 748 207 u;
#X msg 788 208 U;
#X msg 824 208 &;
#X msg 860 208 A;
#X obj 648 286 route i I E ae ^ u U & A;
#X msg 660 338 280 2250 2900;
#X msg 664 373 480 1900 2550;
#X msg 673 414 550 1770 2490;
#X msg 679 455 690 1660 2490;
#X msg 696 491 640 1190 2390;
#X msg 705 533 310 870 2250;
#X msg 710 571 450 1030 2380;
#X msg 718 610 500 1500 2500;
#X msg 718 655 710 1100 2640;
#X floatatom 422 320 5 0 0 0 - - -;
#X obj 307 48 bng 15 250 50 0 empty empty empty 17 7 0 10 -262144 -1
-1;
#X obj 371 723 *~;
#X obj 203 636 vline~;
#X msg 157 533 1 50 \, 0.75 25 50 \, 0 250 1000;
#X text 237 12 correct!;
#X text 141 60 wrong!;
#X obj 240 86 bng 15 250 50 0 empty empty empty 17 7 0 10 -262144 -1
-1;
#N canvas 1234 88 450 498 correct 0;
#X obj 95 88 bng 15 250 50 0 empty empty empty 17 7 0 10 -262144 -1
-1;
#X floatatom 122 351 5 0 0 0 - - -;
#X obj 162 94 bng 15 250 50 0 empty empty empty 17 7 0 10 -262144 -1
-1;
#X obj 237 131 bng 15 250 50 0 empty empty empty 17 7 0 10 -262144
-1 -1;
#X obj 122 425 outlet;
#X obj 95 17 inlet;
#X obj 122 305 line;
#X obj 162 123 del 200;
#X msg 302 246 0;
#X obj 302 177 bng 15 250 50 0 empty empty empty 17 7 0 10 -262144
-1 -1;
#X obj 302 212 del 1000;
#X obj 237 166 del 200;
#X msg 237 197 25 1000;
#X msg 162 151 125 100;
#X msg 95 117 80 100;
#X connect 0 0 14 0;
#X connect 1 0 4 0;
#X connect 2 0 7 0;
#X connect 3 0 11 0;
#X connect 5 0 0 0;
#X connect 6 0 1 0;
#X connect 7 0 13 0;
#X connect 8 0 6 0;
#X connect 9 0 10 0;
#X connect 10 0 8 0;
#X connect 11 0 12 0;
#X connect 12 0 6 0;
#X connect 12 0 9 0;
#X connect 13 0 6 0;
#X connect 13 0 3 0;
#X connect 14 0 2 0;
#X connect 14 0 6 0;
#X restore 458 235 pd correct;
#N canvas 1247 176 450 493 wrong 0;
#X obj 102 68 inlet;
#X obj 102 126 bng 15 250 50 0 empty empty empty 17 7 0 10 -262144
-1 -1;
#X floatatom 102 318 5 0 0 0 - - -;
#X obj 164 140 bng 15 250 50 0 empty empty empty 17 7 0 10 -262144
-1 -1;
#X obj 240 179 bng 15 250 50 0 empty empty empty 17 7 0 10 -262144
-1 -1;
#X obj 102 385 outlet;
#X obj 102 272 line;
#X msg 294 252 0;
#X obj 294 203 bng 15 250 50 0 empty empty empty 17 7 0 10 -262144
-1 -1;
#X obj 164 169 del 80;
#X obj 240 203 del 400;
#X obj 294 227 del 1000;
#X msg 102 157 80 100;
#X msg 164 196 60 350;
#X msg 240 228 80 600;
#X connect 0 0 1 0;
#X connect 1 0 12 0;
#X connect 2 0 5 0;
#X connect 3 0 9 0;
#X connect 4 0 10 0;
#X connect 6 0 2 0;
#X connect 7 0 6 0;
#X connect 8 0 11 0;
#X connect 9 0 13 0;
#X connect 10 0 14 0;
#X connect 11 0 7 0;
#X connect 12 0 3 0;
#X connect 12 0 6 0;
#X connect 13 0 6 0;
#X connect 13 0 4 0;
#X connect 14 0 6 0;
#X connect 14 0 8 0;
#X restore 391 235 pd wrong;
#X obj 556 80 del 275;
#X obj 596 122 del 100;
#X msg 117 567 1 50 \, 0.75 25 50 \, 0 250 1100;
#X obj 195 62 inlet;
#X obj 306 10 inlet;
#X obj 326 778 outlet~;
#X obj 402 777 outlet~;
#X connect 0 0 5 0;
#X connect 1 0 2 0;
#X connect 2 0 3 0;
#X connect 2 0 3 1;
#X connect 3 0 4 0;
#X connect 4 0 5 1;
#X connect 5 0 6 0;
#X connect 6 0 7 0;
#X connect 6 0 8 0;
#X connect 6 0 9 0;
#X connect 7 0 10 0;
#X connect 8 0 10 0;
#X connect 9 0 10 0;
#X connect 10 0 33 1;
#X connect 11 0 7 1;
#X connect 11 1 8 1;
#X connect 11 2 9 1;
#X connect 12 0 21 0;
#X connect 13 0 21 0;
#X connect 14 0 21 0;
#X connect 15 0 21 0;
#X connect 16 0 21 0;
#X connect 17 0 21 0;
#X connect 18 0 21 0;
#X connect 19 0 21 0;
#X connect 20 0 21 0;
#X connect 21 0 22 0;
#X connect 21 1 23 0;
#X connect 21 2 24 0;
#X connect 21 3 25 0;
#X connect 21 4 26 0;
#X connect 21 5 27 0;
#X connect 21 6 28 0;
#X connect 21 7 29 0;
#X connect 21 8 30 0;
#X connect 22 0 11 0;
#X connect 23 0 11 0;
#X connect 24 0 11 0;
#X connect 25 0 11 0;
#X connect 26 0 11 0;
#X connect 27 0 11 0;
#X connect 28 0 11 0;
#X connect 29 0 11 0;
#X connect 30 0 11 0;
#X connect 31 0 1 0;
#X connect 32 0 39 0;
#X connect 32 0 35 0;
#X connect 32 0 12 0;
#X connect 32 0 41 0;
#X connect 33 0 46 0;
#X connect 33 0 47 0;
#X connect 34 0 33 0;
#X connect 35 0 34 0;
#X connect 38 0 40 0;
#X connect 38 0 20 0;
#X connect 38 0 43 0;
#X connect 39 0 31 0;
#X connect 40 0 31 0;
#X connect 41 0 13 0;
#X connect 41 0 42 0;
#X connect 42 0 15 0;
#X connect 43 0 34 0;
#X connect 44 0 38 0;
#X connect 45 0 32 0;
#X restore 370 248 pd host-voice;
#X obj 397 297 dac~;
#X obj 370 171 bng 15 250 50 0 empty empty empty 17 7 0 10 -262144
-1 -1;
#X obj 458 176 bng 15 250 50 0 empty empty empty 17 7 0 10 -262144
-1 -1;
#X text 358 146 wrong;
#X text 437 153 correct;
#X connect 0 0 2 0;
#X connect 0 1 2 1;
#X connect 1 0 0 0;
#X connect 3 0 9 0;
#X connect 3 1 9 1;
#X connect 4 0 6 0;
#X connect 4 0 5 0;
#X connect 5 0 4 1;
#X connect 6 0 3 0;
#X connect 7 0 10 1;
#X connect 8 0 10 0;
#X connect 10 0 4 0;
#X connect 11 0 12 0;
#X connect 13 0 14 0;
#X connect 13 1 14 1;
#X connect 15 0 13 0;
#X connect 16 0 13 1;
